<svg width="1440" height="216" viewBox="0 0 1440 216" fill="none" xmlns="http://www.w3.org/2000/svg">
<rect width="1440" height="216" fill="#E7ECFF"/>
<rect x="1166" y="67" width="109" height="26" rx="2" fill="#111B47"/>
<path d="M1184.88 80.8301V84H1183.39V75.4688H1186.66C1187.61 75.4688 1188.37 75.7168 1188.92 76.2129C1189.49 76.709 1189.77 77.3652 1189.77 78.1816C1189.77 79.0176 1189.49 79.668 1188.94 80.1328C1188.39 80.5977 1187.63 80.8301 1186.64 80.8301H1184.88ZM1184.88 79.6406H1186.66C1187.18 79.6406 1187.59 79.5176 1187.86 79.2715C1188.14 79.0215 1188.28 78.6621 1188.28 78.1934C1188.28 77.7324 1188.14 77.3652 1187.86 77.0918C1187.58 76.8145 1187.19 76.6719 1186.7 76.6641H1184.88V79.6406ZM1194.77 83.3789C1194.35 83.8711 1193.76 84.1172 1192.99 84.1172C1192.3 84.1172 1191.78 83.916 1191.43 83.5137C1191.07 83.1113 1190.9 82.5293 1190.9 81.7676V77.6602H1192.32V81.75C1192.32 82.5547 1192.66 82.957 1193.32 82.957C1194.02 82.957 1194.48 82.709 1194.72 82.2129V77.6602H1196.15V84H1194.81L1194.77 83.3789ZM1200.92 78.9609C1200.73 78.9297 1200.54 78.9141 1200.34 78.9141C1199.69 78.9141 1199.25 79.1641 1199.02 79.6641V84H1197.6V77.6602H1198.96L1198.99 78.3691C1199.33 77.8184 1199.81 77.543 1200.42 77.543C1200.62 77.543 1200.79 77.5703 1200.92 77.625L1200.92 78.9609ZM1204.3 82.9805C1204.66 82.9805 1204.96 82.877 1205.19 82.6699C1205.42 82.4629 1205.55 82.207 1205.56 81.9023H1206.91C1206.89 82.2969 1206.77 82.666 1206.54 83.0098C1206.31 83.3496 1205.99 83.6191 1205.6 83.8184C1205.21 84.0176 1204.78 84.1172 1204.32 84.1172C1203.44 84.1172 1202.73 83.8301 1202.21 83.2559C1201.69 82.6816 1201.43 81.8887 1201.43 80.877V80.7305C1201.43 79.7656 1201.69 78.9941 1202.21 78.416C1202.72 77.834 1203.43 77.543 1204.32 77.543C1205.07 77.543 1205.68 77.7637 1206.16 78.2051C1206.63 78.6426 1206.88 79.2188 1206.91 79.9336H1205.56C1205.55 79.5703 1205.42 79.2715 1205.19 79.0371C1204.96 78.8027 1204.66 78.6855 1204.3 78.6855C1203.84 78.6855 1203.49 78.8535 1203.24 79.1895C1202.99 79.5215 1202.86 80.0273 1202.86 80.707V80.9355C1202.86 81.623 1202.98 82.1367 1203.23 82.4766C1203.48 82.8125 1203.84 82.9805 1204.3 82.9805ZM1209.38 78.3516C1209.85 77.8125 1210.44 77.543 1211.15 77.543C1212.5 77.543 1213.19 78.3145 1213.21 79.8574V84H1211.78V79.9102C1211.78 79.4727 1211.69 79.1641 1211.49 78.9844C1211.31 78.8008 1211.03 78.709 1210.66 78.709C1210.09 78.709 1209.67 78.9629 1209.38 79.4707V84H1207.96V75H1209.38V78.3516ZM1218.44 84C1218.38 83.8789 1218.32 83.6816 1218.27 83.4082C1217.82 83.8809 1217.27 84.1172 1216.61 84.1172C1215.97 84.1172 1215.45 83.9355 1215.05 83.5723C1214.65 83.209 1214.45 82.7598 1214.45 82.2246C1214.45 81.5488 1214.7 81.0312 1215.2 80.6719C1215.7 80.3086 1216.42 80.127 1217.35 80.127H1218.23V79.7109C1218.23 79.3828 1218.13 79.1211 1217.95 78.9258C1217.77 78.7266 1217.49 78.627 1217.11 78.627C1216.79 78.627 1216.52 78.709 1216.32 78.873C1216.11 79.0332 1216.01 79.2383 1216.01 79.4883H1214.58C1214.58 79.1406 1214.7 78.8164 1214.93 78.5156C1215.16 78.2109 1215.47 77.9727 1215.87 77.8008C1216.26 77.6289 1216.71 77.543 1217.2 77.543C1217.94 77.543 1218.53 77.7305 1218.97 78.1055C1219.41 78.4766 1219.64 79 1219.65 79.6758V82.5352C1219.65 83.1055 1219.73 83.5605 1219.89 83.9004V84H1218.44ZM1216.87 82.9746C1217.15 82.9746 1217.42 82.9062 1217.66 82.7695C1217.91 82.6328 1218.1 82.4492 1218.23 82.2188V81.0234H1217.46C1216.93 81.0234 1216.54 81.1152 1216.27 81.2988C1216 81.4824 1215.87 81.7422 1215.87 82.0781C1215.87 82.3516 1215.96 82.5703 1216.14 82.7344C1216.32 82.8945 1216.57 82.9746 1216.87 82.9746ZM1224.7 82.2773C1224.7 82.0234 1224.59 81.8301 1224.38 81.6973C1224.17 81.5645 1223.83 81.4473 1223.34 81.3457C1222.86 81.2441 1222.45 81.1152 1222.13 80.959C1221.42 80.6152 1221.06 80.1172 1221.06 79.4648C1221.06 78.918 1221.29 78.4609 1221.75 78.0938C1222.21 77.7266 1222.8 77.543 1223.51 77.543C1224.27 77.543 1224.88 77.7305 1225.35 78.1055C1225.81 78.4805 1226.05 78.9668 1226.05 79.5645H1224.62C1224.62 79.291 1224.52 79.0645 1224.32 78.8848C1224.12 78.7012 1223.85 78.6094 1223.51 78.6094C1223.2 78.6094 1222.94 78.6816 1222.74 78.8262C1222.55 78.9707 1222.45 79.1641 1222.45 79.4062C1222.45 79.625 1222.54 79.7949 1222.73 79.916C1222.91 80.0371 1223.28 80.1602 1223.84 80.2852C1224.4 80.4062 1224.84 80.5527 1225.15 80.7246C1225.47 80.8926 1225.71 81.0957 1225.86 81.334C1226.02 81.5723 1226.1 81.8613 1226.1 82.2012C1226.1 82.7715 1225.86 83.2344 1225.39 83.5898C1224.91 83.9414 1224.29 84.1172 1223.53 84.1172C1223.01 84.1172 1222.55 84.0234 1222.14 83.8359C1221.73 83.6484 1221.42 83.3906 1221.19 83.0625C1220.96 82.7344 1220.85 82.3809 1220.85 82.002H1222.23C1222.25 82.3379 1222.38 82.5977 1222.62 82.7812C1222.85 82.9609 1223.16 83.0508 1223.55 83.0508C1223.92 83.0508 1224.21 82.9805 1224.4 82.8398C1224.6 82.6953 1224.7 82.5078 1224.7 82.2773ZM1230.13 84.1172C1229.23 84.1172 1228.5 83.834 1227.94 83.2676C1227.38 82.6973 1227.1 81.9395 1227.1 80.9941V80.8184C1227.1 80.1855 1227.22 79.6211 1227.46 79.125C1227.71 78.625 1228.05 78.2363 1228.49 77.959C1228.93 77.6816 1229.43 77.543 1229.97 77.543C1230.83 77.543 1231.5 77.8184 1231.97 78.3691C1232.44 78.9199 1232.68 79.6992 1232.68 80.707V81.2812H1228.53C1228.58 81.8047 1228.75 82.2188 1229.05 82.5234C1229.36 82.8281 1229.75 82.9805 1230.21 82.9805C1230.87 82.9805 1231.4 82.7168 1231.81 82.1895L1232.58 82.9219C1232.32 83.3008 1231.98 83.5957 1231.56 83.8066C1231.13 84.0137 1230.66 84.1172 1230.13 84.1172ZM1229.96 78.6855C1229.57 78.6855 1229.26 78.8223 1229.01 79.0957C1228.78 79.3691 1228.62 79.75 1228.56 80.2383H1231.27V80.1328C1231.24 79.6562 1231.11 79.2969 1230.89 79.0547C1230.67 78.8086 1230.36 78.6855 1229.96 78.6855ZM1238.1 77.6602L1238.14 78.3926C1238.61 77.8262 1239.22 77.543 1239.98 77.543C1241.3 77.543 1241.97 78.2988 1242 79.8105V84H1240.57V79.8926C1240.57 79.4902 1240.49 79.1934 1240.31 79.002C1240.14 78.8066 1239.86 78.709 1239.46 78.709C1238.89 78.709 1238.46 78.9688 1238.18 79.4883V84H1236.75V77.6602H1238.1ZM1243.19 80.7715C1243.19 80.1504 1243.31 79.5918 1243.56 79.0957C1243.8 78.5957 1244.15 78.2129 1244.59 77.9473C1245.04 77.6777 1245.55 77.543 1246.13 77.543C1246.98 77.543 1247.68 77.8184 1248.21 78.3691C1248.74 78.9199 1249.03 79.6504 1249.08 80.5605L1249.08 80.8945C1249.08 81.5195 1248.96 82.0781 1248.72 82.5703C1248.48 83.0625 1248.14 83.4434 1247.69 83.7129C1247.24 83.9824 1246.73 84.1172 1246.14 84.1172C1245.25 84.1172 1244.53 83.8203 1243.99 83.2266C1243.46 82.6289 1243.19 81.834 1243.19 80.8418V80.7715ZM1244.61 80.8945C1244.61 81.5469 1244.75 82.0586 1245.02 82.4297C1245.29 82.7969 1245.66 82.9805 1246.14 82.9805C1246.62 82.9805 1246.99 82.793 1247.26 82.418C1247.53 82.043 1247.66 81.4941 1247.66 80.7715C1247.66 80.1309 1247.53 79.623 1247.25 79.248C1246.97 78.873 1246.6 78.6855 1246.13 78.6855C1245.66 78.6855 1245.29 78.8711 1245.02 79.2422C1244.75 79.6094 1244.61 80.1602 1244.61 80.8945ZM1255.86 82.0371L1256.86 77.6602H1258.25L1256.52 84H1255.35L1253.99 79.6465L1252.66 84H1251.48L1249.75 77.6602H1251.14L1252.16 81.9902L1253.46 77.6602H1254.54L1255.86 82.0371Z" fill="white"/>
<path d="M171.624 80.9189H172.649C172.649 81.6344 172.444 82.1722 172.034 82.5322C171.629 82.8877 171.075 83.0654 170.373 83.0654C169.885 83.0654 169.464 82.9538 169.108 82.7305C168.757 82.5072 168.484 82.1973 168.288 81.8008C168.097 81.4043 168.001 80.944 168.001 80.4199V79.6201C168.001 79.096 168.097 78.6357 168.288 78.2393C168.484 77.8428 168.757 77.5329 169.108 77.3096C169.464 77.0863 169.885 76.9746 170.373 76.9746C171.075 76.9746 171.631 77.1546 172.041 77.5146C172.451 77.8701 172.656 78.4056 172.656 79.1211H171.631C171.631 78.6745 171.524 78.3555 171.31 78.1641C171.1 77.9681 170.788 77.8701 170.373 77.8701C170.077 77.8701 169.826 77.9453 169.621 78.0957C169.421 78.2415 169.268 78.4466 169.163 78.7109C169.063 78.9753 169.013 79.276 169.013 79.6133V80.4199C169.013 80.7617 169.063 81.0648 169.163 81.3291C169.268 81.5934 169.421 81.8008 169.621 81.9512C169.826 82.097 170.077 82.1699 170.373 82.1699C170.788 82.1699 171.1 82.0742 171.31 81.8828C171.519 81.6914 171.624 81.3701 171.624 80.9189ZM166.415 80.0166C166.415 80.6227 166.52 81.1878 166.729 81.7119C166.939 82.2314 167.229 82.6872 167.598 83.0791C167.971 83.4665 168.402 83.7695 168.89 83.9883C169.382 84.2025 169.908 84.3096 170.469 84.3096C171.025 84.3096 171.547 84.2025 172.034 83.9883C172.522 83.7695 172.95 83.4665 173.319 83.0791C173.693 82.6872 173.985 82.2314 174.194 81.7119C174.404 81.1878 174.509 80.6227 174.509 80.0166C174.509 79.4105 174.404 78.8477 174.194 78.3281C173.985 77.8086 173.693 77.3551 173.319 76.9678C172.95 76.5804 172.522 76.2796 172.034 76.0654C171.547 75.8467 171.025 75.7373 170.469 75.7373C169.908 75.7373 169.382 75.8467 168.89 76.0654C168.402 76.2796 167.971 76.5804 167.598 76.9678C167.229 77.3551 166.939 77.8086 166.729 78.3281C166.52 78.8477 166.415 79.4105 166.415 80.0166ZM165.615 80.0166C165.615 79.292 165.741 78.6198 165.991 78C166.242 77.3802 166.59 76.8402 167.037 76.3799C167.484 75.915 167.999 75.555 168.582 75.2998C169.17 75.04 169.799 74.9102 170.469 74.9102C171.139 74.9102 171.765 75.04 172.349 75.2998C172.937 75.555 173.451 75.915 173.894 76.3799C174.34 76.8402 174.689 77.3802 174.939 78C175.19 78.6198 175.315 79.292 175.315 80.0166C175.315 80.7412 175.19 81.4134 174.939 82.0332C174.689 82.653 174.34 83.1976 173.894 83.667C173.451 84.1318 172.937 84.4941 172.349 84.7539C171.765 85.0137 171.139 85.1436 170.469 85.1436C169.799 85.1436 169.17 85.0137 168.582 84.7539C167.999 84.4941 167.484 84.1318 167.037 83.667C166.59 83.1976 166.242 82.653 165.991 82.0332C165.741 81.4134 165.615 80.7412 165.615 80.0166ZM183.43 83.6875V85H176.758V83.8721L179.998 80.3379C180.354 79.9368 180.634 79.5905 180.839 79.2988C181.044 79.0072 181.188 78.7451 181.27 78.5127C181.356 78.2757 181.399 78.0456 181.399 77.8223C181.399 77.5078 181.34 77.2321 181.222 76.9951C181.108 76.7536 180.939 76.5645 180.716 76.4277C180.493 76.2865 180.221 76.2158 179.902 76.2158C179.533 76.2158 179.223 76.2956 178.973 76.4551C178.722 76.6146 178.533 76.8356 178.405 77.1182C178.278 77.3962 178.214 77.7152 178.214 78.0752H176.566C176.566 77.4964 176.699 76.9678 176.963 76.4893C177.227 76.0062 177.61 75.6234 178.111 75.3408C178.613 75.0537 179.216 74.9102 179.923 74.9102C180.588 74.9102 181.153 75.0218 181.618 75.2451C182.083 75.4684 182.436 75.7852 182.678 76.1953C182.924 76.6055 183.047 77.0908 183.047 77.6514C183.047 77.9613 182.997 78.2689 182.896 78.5742C182.796 78.8796 182.653 79.1849 182.466 79.4902C182.284 79.791 182.067 80.0941 181.816 80.3994C181.566 80.7002 181.29 81.0055 180.989 81.3154L178.836 83.6875H183.43ZM191.202 79.1895V80.8164C191.202 81.5957 191.125 82.2611 190.97 82.8125C190.819 83.3594 190.601 83.8037 190.313 84.1455C190.026 84.4873 189.682 84.738 189.281 84.8975C188.885 85.057 188.44 85.1367 187.948 85.1367C187.556 85.1367 187.192 85.0866 186.854 84.9863C186.522 84.8861 186.221 84.7288 185.952 84.5146C185.683 84.3005 185.453 84.0247 185.262 83.6875C185.075 83.3457 184.929 82.9378 184.824 82.4639C184.724 81.9899 184.674 81.4408 184.674 80.8164V79.1895C184.674 78.4056 184.751 77.7448 184.906 77.207C185.061 76.6647 185.282 76.2249 185.569 75.8877C185.856 75.5459 186.198 75.2975 186.595 75.1426C186.996 74.9876 187.442 74.9102 187.935 74.9102C188.331 74.9102 188.696 74.9603 189.028 75.0605C189.366 75.1562 189.666 75.3089 189.931 75.5186C190.2 75.7282 190.427 76.0016 190.614 76.3389C190.806 76.6715 190.951 77.0749 191.052 77.5488C191.152 78.0182 191.202 78.5651 191.202 79.1895ZM189.555 81.0488V78.9434C189.555 78.5469 189.532 78.1982 189.486 77.8975C189.441 77.5921 189.372 77.3346 189.281 77.125C189.195 76.9108 189.085 76.7376 188.953 76.6055C188.821 76.4688 188.671 76.3708 188.502 76.3115C188.333 76.2477 188.144 76.2158 187.935 76.2158C187.679 76.2158 187.451 76.266 187.251 76.3662C187.05 76.4619 186.882 76.6169 186.745 76.8311C186.608 77.0452 186.504 77.3278 186.431 77.6787C186.362 78.0251 186.328 78.4466 186.328 78.9434V81.0488C186.328 81.4499 186.351 81.8031 186.396 82.1084C186.442 82.4137 186.51 82.6758 186.602 82.8945C186.693 83.1087 186.802 83.2865 186.93 83.4277C187.062 83.5645 187.212 83.6647 187.381 83.7285C187.554 83.7923 187.743 83.8242 187.948 83.8242C188.208 83.8242 188.438 83.7741 188.639 83.6738C188.839 83.5736 189.008 83.4141 189.145 83.1953C189.281 82.972 189.384 82.6826 189.452 82.3271C189.521 81.9717 189.555 81.5456 189.555 81.0488ZM199.344 83.6875V85H192.672V83.8721L195.912 80.3379C196.268 79.9368 196.548 79.5905 196.753 79.2988C196.958 79.0072 197.102 78.7451 197.184 78.5127C197.27 78.2757 197.313 78.0456 197.313 77.8223C197.313 77.5078 197.254 77.2321 197.136 76.9951C197.022 76.7536 196.853 76.5645 196.63 76.4277C196.407 76.2865 196.135 76.2158 195.816 76.2158C195.447 76.2158 195.137 76.2956 194.887 76.4551C194.636 76.6146 194.447 76.8356 194.319 77.1182C194.192 77.3962 194.128 77.7152 194.128 78.0752H192.48C192.48 77.4964 192.613 76.9678 192.877 76.4893C193.141 76.0062 193.524 75.6234 194.025 75.3408C194.527 75.0537 195.131 74.9102 195.837 74.9102C196.502 74.9102 197.067 75.0218 197.532 75.2451C197.997 75.4684 198.35 75.7852 198.592 76.1953C198.838 76.6055 198.961 77.0908 198.961 77.6514C198.961 77.9613 198.911 78.2689 198.811 78.5742C198.71 78.8796 198.567 79.1849 198.38 79.4902C198.198 79.791 197.981 80.0941 197.73 80.3994C197.48 80.7002 197.204 81.0055 196.903 81.3154L194.75 83.6875H199.344ZM202.563 79.2783H203.548C203.931 79.2783 204.247 79.2122 204.498 79.0801C204.753 78.9479 204.942 78.7656 205.065 78.5332C205.188 78.3008 205.25 78.0342 205.25 77.7334C205.25 77.4189 205.193 77.1501 205.079 76.9268C204.97 76.6989 204.801 76.5234 204.573 76.4004C204.35 76.2773 204.065 76.2158 203.719 76.2158C203.427 76.2158 203.163 76.2751 202.926 76.3936C202.693 76.5075 202.509 76.6715 202.372 76.8857C202.235 77.0954 202.167 77.346 202.167 77.6377H200.513C200.513 77.109 200.652 76.6396 200.93 76.2295C201.208 75.8193 201.586 75.498 202.064 75.2656C202.548 75.0286 203.09 74.9102 203.691 74.9102C204.334 74.9102 204.895 75.0173 205.373 75.2314C205.856 75.4411 206.232 75.7555 206.501 76.1748C206.77 76.5941 206.904 77.1136 206.904 77.7334C206.904 78.016 206.838 78.3031 206.706 78.5947C206.574 78.8864 206.378 79.153 206.118 79.3945C205.858 79.6315 205.535 79.8252 205.147 79.9756C204.76 80.1214 204.311 80.1943 203.801 80.1943H202.563V79.2783ZM202.563 80.5635V79.6611H203.801C204.384 79.6611 204.881 79.7295 205.291 79.8662C205.706 80.0029 206.043 80.1921 206.303 80.4336C206.562 80.6706 206.752 80.9417 206.87 81.2471C206.993 81.5524 207.055 81.876 207.055 82.2178C207.055 82.6826 206.97 83.0973 206.802 83.4619C206.638 83.8219 206.403 84.1273 206.098 84.3779C205.792 84.6286 205.435 84.8177 205.024 84.9453C204.619 85.0729 204.177 85.1367 203.698 85.1367C203.27 85.1367 202.86 85.0775 202.468 84.959C202.076 84.8405 201.725 84.665 201.415 84.4326C201.105 84.1956 200.859 83.9017 200.677 83.5508C200.499 83.1953 200.41 82.7852 200.41 82.3203H202.058C202.058 82.6165 202.126 82.8786 202.263 83.1064C202.404 83.3298 202.6 83.5052 202.851 83.6328C203.106 83.7604 203.397 83.8242 203.726 83.8242C204.072 83.8242 204.37 83.7627 204.621 83.6396C204.872 83.5166 205.063 83.3343 205.195 83.0928C205.332 82.8512 205.4 82.5596 205.4 82.2178C205.4 81.8304 205.325 81.516 205.175 81.2744C205.024 81.0329 204.81 80.8551 204.532 80.7412C204.254 80.6227 203.926 80.5635 203.548 80.5635H202.563ZM213.282 75.0469L215.593 79.7979L217.903 75.0469H219.804L216.454 81.3359V85H214.725V81.3359L211.375 75.0469H213.282ZM219.961 81.3838V81.2266C219.961 80.6934 220.038 80.1989 220.193 79.7432C220.348 79.2829 220.572 78.8841 220.863 78.5469C221.16 78.2051 221.52 77.9408 221.943 77.7539C222.372 77.5625 222.855 77.4668 223.393 77.4668C223.935 77.4668 224.418 77.5625 224.842 77.7539C225.27 77.9408 225.632 78.2051 225.929 78.5469C226.225 78.8841 226.451 79.2829 226.605 79.7432C226.76 80.1989 226.838 80.6934 226.838 81.2266V81.3838C226.838 81.917 226.76 82.4115 226.605 82.8672C226.451 83.3229 226.225 83.7217 225.929 84.0635C225.632 84.4007 225.272 84.665 224.849 84.8564C224.425 85.0433 223.944 85.1367 223.406 85.1367C222.864 85.1367 222.379 85.0433 221.95 84.8564C221.526 84.665 221.166 84.4007 220.87 84.0635C220.574 83.7217 220.348 83.3229 220.193 82.8672C220.038 82.4115 219.961 81.917 219.961 81.3838ZM221.608 81.2266V81.3838C221.608 81.7165 221.643 82.0309 221.711 82.3271C221.779 82.6234 221.886 82.8831 222.032 83.1064C222.178 83.3298 222.365 83.5052 222.593 83.6328C222.821 83.7604 223.092 83.8242 223.406 83.8242C223.712 83.8242 223.976 83.7604 224.199 83.6328C224.427 83.5052 224.614 83.3298 224.76 83.1064C224.906 82.8831 225.013 82.6234 225.081 82.3271C225.154 82.0309 225.19 81.7165 225.19 81.3838V81.2266C225.19 80.8984 225.154 80.5885 225.081 80.2969C225.013 80.0007 224.903 79.7386 224.753 79.5107C224.607 79.2829 224.42 79.1051 224.192 78.9775C223.969 78.8454 223.702 78.7793 223.393 78.7793C223.083 78.7793 222.814 78.8454 222.586 78.9775C222.363 79.1051 222.178 79.2829 222.032 79.5107C221.886 79.7386 221.779 80.0007 221.711 80.2969C221.643 80.5885 221.608 80.8984 221.608 81.2266ZM232.669 83.2568V77.6035H234.323V85H232.765L232.669 83.2568ZM232.901 81.7188L233.455 81.7051C233.455 82.2018 233.4 82.6598 233.291 83.0791C233.182 83.4938 233.013 83.8561 232.785 84.166C232.557 84.4714 232.266 84.7106 231.91 84.8838C231.555 85.0524 231.129 85.1367 230.632 85.1367C230.272 85.1367 229.941 85.0843 229.641 84.9795C229.34 84.8747 229.08 84.7129 228.861 84.4941C228.647 84.2754 228.481 83.9906 228.362 83.6396C228.244 83.2887 228.185 82.8695 228.185 82.3818V77.6035H229.832V82.3955C229.832 82.6644 229.864 82.89 229.928 83.0723C229.992 83.25 230.078 83.3936 230.188 83.5029C230.297 83.6123 230.424 83.6898 230.57 83.7354C230.716 83.7809 230.871 83.8037 231.035 83.8037C231.505 83.8037 231.874 83.7126 232.143 83.5303C232.416 83.3434 232.61 83.0928 232.724 82.7783C232.842 82.4639 232.901 82.1107 232.901 81.7188ZM237.666 79.0117V85H236.019V77.6035H237.591L237.666 79.0117ZM239.929 77.5557L239.915 79.0869C239.815 79.0687 239.705 79.055 239.587 79.0459C239.473 79.0368 239.359 79.0322 239.245 79.0322C238.963 79.0322 238.714 79.0732 238.5 79.1553C238.286 79.2327 238.106 79.3467 237.96 79.4971C237.819 79.6429 237.709 79.8206 237.632 80.0303C237.554 80.2399 237.509 80.4746 237.495 80.7344L237.119 80.7617C237.119 80.2969 237.165 79.8662 237.256 79.4697C237.347 79.0732 237.484 78.7246 237.666 78.4238C237.853 78.123 238.085 77.8883 238.363 77.7197C238.646 77.5511 238.972 77.4668 239.341 77.4668C239.441 77.4668 239.548 77.4759 239.662 77.4941C239.781 77.5124 239.869 77.5329 239.929 77.5557ZM243.846 83.8242C244.115 83.8242 244.356 83.7718 244.57 83.667C244.789 83.5576 244.965 83.4072 245.097 83.2158C245.233 83.0244 245.309 82.8034 245.322 82.5527H246.874C246.865 83.0312 246.724 83.4665 246.45 83.8584C246.177 84.2503 245.814 84.5625 245.363 84.7949C244.912 85.0228 244.413 85.1367 243.866 85.1367C243.301 85.1367 242.809 85.041 242.39 84.8496C241.97 84.6536 241.622 84.3848 241.344 84.043C241.066 83.7012 240.856 83.307 240.715 82.8604C240.578 82.4137 240.51 81.9352 240.51 81.4248V81.1855C240.51 80.6751 240.578 80.1966 240.715 79.75C240.856 79.2988 241.066 78.9023 241.344 78.5605C241.622 78.2188 241.97 77.9521 242.39 77.7607C242.809 77.5648 243.299 77.4668 243.859 77.4668C244.452 77.4668 244.971 77.5853 245.418 77.8223C245.865 78.0547 246.215 78.3805 246.471 78.7998C246.73 79.2145 246.865 79.6976 246.874 80.249H245.322C245.309 79.9756 245.24 79.7295 245.117 79.5107C244.999 79.2874 244.83 79.1097 244.611 78.9775C244.397 78.8454 244.14 78.7793 243.839 78.7793C243.506 78.7793 243.23 78.8477 243.012 78.9844C242.793 79.1165 242.622 79.2988 242.499 79.5312C242.376 79.7591 242.287 80.0166 242.232 80.3037C242.182 80.5863 242.157 80.8802 242.157 81.1855V81.4248C242.157 81.7301 242.182 82.0264 242.232 82.3135C242.283 82.6006 242.369 82.8581 242.492 83.0859C242.62 83.3092 242.793 83.4893 243.012 83.626C243.23 83.7581 243.508 83.8242 243.846 83.8242ZM247.824 81.3838V81.2266C247.824 80.6934 247.902 80.1989 248.057 79.7432C248.212 79.2829 248.435 78.8841 248.727 78.5469C249.023 78.2051 249.383 77.9408 249.807 77.7539C250.235 77.5625 250.718 77.4668 251.256 77.4668C251.798 77.4668 252.281 77.5625 252.705 77.7539C253.133 77.9408 253.496 78.2051 253.792 78.5469C254.088 78.8841 254.314 79.2829 254.469 79.7432C254.624 80.1989 254.701 80.6934 254.701 81.2266V81.3838C254.701 81.917 254.624 82.4115 254.469 82.8672C254.314 83.3229 254.088 83.7217 253.792 84.0635C253.496 84.4007 253.136 84.665 252.712 84.8564C252.288 85.0433 251.807 85.1367 251.27 85.1367C250.727 85.1367 250.242 85.0433 249.813 84.8564C249.39 84.665 249.03 84.4007 248.733 84.0635C248.437 83.7217 248.212 83.3229 248.057 82.8672C247.902 82.4115 247.824 81.917 247.824 81.3838ZM249.472 81.2266V81.3838C249.472 81.7165 249.506 82.0309 249.574 82.3271C249.643 82.6234 249.75 82.8831 249.896 83.1064C250.041 83.3298 250.228 83.5052 250.456 83.6328C250.684 83.7604 250.955 83.8242 251.27 83.8242C251.575 83.8242 251.839 83.7604 252.062 83.6328C252.29 83.5052 252.477 83.3298 252.623 83.1064C252.769 82.8831 252.876 82.6234 252.944 82.3271C253.017 82.0309 253.054 81.7165 253.054 81.3838V81.2266C253.054 80.8984 253.017 80.5885 252.944 80.2969C252.876 80.0007 252.767 79.7386 252.616 79.5107C252.47 79.2829 252.284 79.1051 252.056 78.9775C251.832 78.8454 251.566 78.7793 251.256 78.7793C250.946 78.7793 250.677 78.8454 250.449 78.9775C250.226 79.1051 250.041 79.2829 249.896 79.5107C249.75 79.7386 249.643 80.0007 249.574 80.2969C249.506 80.5885 249.472 80.8984 249.472 81.2266ZM257.729 79.1074V85H256.082V77.6035H257.634L257.729 79.1074ZM257.463 81.0283L256.902 81.0215C256.902 80.5111 256.966 80.0394 257.094 79.6064C257.221 79.1735 257.408 78.7975 257.654 78.4785C257.9 78.1549 258.206 77.9066 258.57 77.7334C258.939 77.5557 259.366 77.4668 259.849 77.4668C260.186 77.4668 260.493 77.5169 260.771 77.6172C261.054 77.7129 261.298 77.8656 261.503 78.0752C261.713 78.2848 261.872 78.5537 261.981 78.8818C262.095 79.21 262.152 79.6064 262.152 80.0713V85H260.505V80.2148C260.505 79.8548 260.45 79.5723 260.341 79.3672C260.236 79.1621 260.083 79.0163 259.883 78.9297C259.687 78.8385 259.452 78.793 259.179 78.793C258.869 78.793 258.604 78.8522 258.386 78.9707C258.172 79.0892 257.996 79.251 257.859 79.4561C257.723 79.6611 257.622 79.8981 257.559 80.167C257.495 80.4359 257.463 80.723 257.463 81.0283ZM262.05 80.5908L261.277 80.7617C261.277 80.3151 261.339 79.8936 261.462 79.4971C261.59 79.096 261.774 78.7451 262.016 78.4443C262.262 78.139 262.565 77.8997 262.925 77.7266C263.285 77.5534 263.697 77.4668 264.162 77.4668C264.54 77.4668 264.878 77.5192 265.174 77.624C265.475 77.7243 265.73 77.8838 265.939 78.1025C266.149 78.3213 266.309 78.6061 266.418 78.957C266.527 79.3034 266.582 79.7227 266.582 80.2148V85H264.928V80.208C264.928 79.8343 264.873 79.5449 264.764 79.3398C264.659 79.1348 264.508 78.9935 264.312 78.916C264.117 78.834 263.882 78.793 263.608 78.793C263.353 78.793 263.128 78.8408 262.932 78.9365C262.74 79.0277 262.578 79.1576 262.446 79.3262C262.314 79.4902 262.214 79.6794 262.146 79.8936C262.082 80.1077 262.05 80.3402 262.05 80.5908ZM269.932 79.0254V87.8438H268.284V77.6035H269.802L269.932 79.0254ZM274.751 81.2334V81.377C274.751 81.9147 274.687 82.4137 274.56 82.874C274.437 83.3298 274.252 83.7285 274.006 84.0703C273.764 84.4076 273.466 84.6696 273.11 84.8564C272.755 85.0433 272.345 85.1367 271.88 85.1367C271.42 85.1367 271.016 85.0524 270.67 84.8838C270.328 84.7106 270.039 84.4668 269.802 84.1523C269.565 83.8379 269.373 83.4688 269.228 83.0449C269.086 82.6165 268.986 82.1471 268.927 81.6367V81.083C268.986 80.5407 269.086 80.0485 269.228 79.6064C269.373 79.1644 269.565 78.7839 269.802 78.4648C270.039 78.1458 270.328 77.8997 270.67 77.7266C271.012 77.5534 271.41 77.4668 271.866 77.4668C272.331 77.4668 272.743 77.5579 273.104 77.7402C273.464 77.918 273.767 78.1732 274.013 78.5059C274.259 78.834 274.443 79.2305 274.566 79.6953C274.689 80.1556 274.751 80.6683 274.751 81.2334ZM273.104 81.377V81.2334C273.104 80.8916 273.072 80.5749 273.008 80.2832C272.944 79.987 272.844 79.7272 272.707 79.5039C272.57 79.2806 272.395 79.1074 272.181 78.9844C271.971 78.8568 271.718 78.793 271.422 78.793C271.13 78.793 270.88 78.8431 270.67 78.9434C270.46 79.0391 270.285 79.1735 270.144 79.3467C270.002 79.5199 269.893 79.7227 269.815 79.9551C269.738 80.1829 269.683 80.4313 269.651 80.7002V82.0264C269.706 82.3545 269.799 82.6553 269.932 82.9287C270.064 83.2021 270.251 83.4209 270.492 83.585C270.738 83.7445 271.053 83.8242 271.436 83.8242C271.732 83.8242 271.985 83.7604 272.194 83.6328C272.404 83.5052 272.575 83.3298 272.707 83.1064C272.844 82.8786 272.944 82.6165 273.008 82.3203C273.072 82.0241 273.104 81.7096 273.104 81.377ZM280.322 83.5166V79.9893C280.322 79.7249 280.274 79.4971 280.179 79.3057C280.083 79.1143 279.937 78.9661 279.741 78.8613C279.55 78.7565 279.308 78.7041 279.017 78.7041C278.748 78.7041 278.515 78.7497 278.319 78.8408C278.123 78.932 277.971 79.055 277.861 79.21C277.752 79.3649 277.697 79.5404 277.697 79.7363H276.057C276.057 79.4447 276.127 79.1621 276.269 78.8887C276.41 78.6152 276.615 78.3714 276.884 78.1572C277.153 77.943 277.474 77.7744 277.848 77.6514C278.221 77.5283 278.641 77.4668 279.105 77.4668C279.661 77.4668 280.154 77.5602 280.582 77.7471C281.015 77.9339 281.354 78.2165 281.601 78.5947C281.851 78.9684 281.977 79.4378 281.977 80.0029V83.291C281.977 83.6283 281.999 83.9313 282.045 84.2002C282.095 84.4645 282.166 84.6947 282.257 84.8906V85H280.568C280.491 84.8223 280.429 84.5967 280.384 84.3232C280.343 84.0452 280.322 83.7764 280.322 83.5166ZM280.562 80.502L280.575 81.5205H279.393C279.087 81.5205 278.818 81.5501 278.586 81.6094C278.354 81.6641 278.16 81.7461 278.005 81.8555C277.85 81.9648 277.734 82.097 277.656 82.252C277.579 82.4069 277.54 82.5824 277.54 82.7783C277.54 82.9743 277.586 83.1543 277.677 83.3184C277.768 83.4779 277.9 83.6032 278.073 83.6943C278.251 83.7855 278.465 83.8311 278.716 83.8311C279.053 83.8311 279.347 83.7627 279.598 83.626C279.853 83.4847 280.053 83.3138 280.199 83.1133C280.345 82.9082 280.423 82.7145 280.432 82.5322L280.965 83.2637C280.91 83.4505 280.817 83.651 280.685 83.8652C280.552 84.0794 280.379 84.2845 280.165 84.4805C279.955 84.6719 279.702 84.8291 279.406 84.9521C279.115 85.0752 278.777 85.1367 278.395 85.1367C277.911 85.1367 277.481 85.041 277.103 84.8496C276.724 84.6536 276.428 84.3916 276.214 84.0635C276 83.7308 275.893 83.3548 275.893 82.9355C275.893 82.5436 275.965 82.1973 276.111 81.8965C276.262 81.5911 276.48 81.3359 276.768 81.1309C277.059 80.9258 277.415 80.7708 277.834 80.666C278.253 80.5566 278.732 80.502 279.27 80.502H280.562ZM285.333 79.1826V85H283.686V77.6035H285.237L285.333 79.1826ZM285.039 81.0283L284.506 81.0215C284.51 80.4974 284.583 80.0166 284.725 79.5791C284.87 79.1416 285.071 78.7656 285.326 78.4512C285.586 78.1367 285.896 77.8952 286.256 77.7266C286.616 77.5534 287.017 77.4668 287.459 77.4668C287.814 77.4668 288.136 77.5169 288.423 77.6172C288.715 77.7129 288.963 77.8701 289.168 78.0889C289.378 78.3076 289.537 78.5924 289.646 78.9434C289.756 79.2897 289.811 79.7158 289.811 80.2217V85H288.156V80.2148C288.156 79.8594 288.104 79.5791 287.999 79.374C287.899 79.1644 287.751 79.0163 287.555 78.9297C287.363 78.8385 287.124 78.793 286.837 78.793C286.554 78.793 286.301 78.8522 286.078 78.9707C285.855 79.0892 285.666 79.251 285.511 79.4561C285.36 79.6611 285.244 79.8981 285.162 80.167C285.08 80.4359 285.039 80.723 285.039 81.0283ZM293.639 84.1934L295.648 77.6035H297.412L294.445 86.1279C294.377 86.3102 294.288 86.5085 294.179 86.7227C294.069 86.9368 293.926 87.1396 293.748 87.3311C293.575 87.527 293.358 87.6842 293.099 87.8027C292.839 87.9258 292.524 87.9873 292.155 87.9873C292.009 87.9873 291.868 87.9736 291.731 87.9463C291.599 87.9235 291.474 87.8984 291.355 87.8711L291.349 86.6133C291.394 86.6178 291.449 86.6224 291.513 86.627C291.581 86.6315 291.636 86.6338 291.677 86.6338C291.95 86.6338 292.178 86.5996 292.36 86.5312C292.543 86.4674 292.691 86.3626 292.805 86.2168C292.923 86.071 293.023 85.875 293.105 85.6289L293.639 84.1934ZM292.504 77.6035L294.261 83.1406L294.555 84.877L293.413 85.1709L290.727 77.6035H292.504Z" fill="#939EA4"/>
<path d="M173.805 177H172.485V172.399H167.468V177H166.155V167.047H167.468V171.326H172.485V167.047H173.805V177ZM175.603 173.233C175.603 172.509 175.744 171.857 176.026 171.278C176.313 170.7 176.71 170.253 177.216 169.938C177.726 169.624 178.307 169.467 178.959 169.467C179.966 169.467 180.78 169.815 181.399 170.513C182.024 171.21 182.336 172.137 182.336 173.295V173.384C182.336 174.104 182.197 174.751 181.919 175.325C181.646 175.895 181.251 176.339 180.736 176.658C180.226 176.977 179.638 177.137 178.973 177.137C177.97 177.137 177.157 176.788 176.532 176.091C175.912 175.394 175.603 174.471 175.603 173.322V173.233ZM176.874 173.384C176.874 174.204 177.063 174.863 177.441 175.359C177.824 175.856 178.335 176.104 178.973 176.104C179.615 176.104 180.126 175.854 180.504 175.353C180.882 174.847 181.071 174.14 181.071 173.233C181.071 172.422 180.878 171.766 180.49 171.265C180.107 170.759 179.597 170.506 178.959 170.506C178.335 170.506 177.831 170.754 177.448 171.251C177.065 171.748 176.874 172.459 176.874 173.384ZM185.111 169.604L185.146 170.424C185.688 169.786 186.419 169.467 187.34 169.467C188.374 169.467 189.078 169.863 189.452 170.656C189.698 170.301 190.017 170.014 190.409 169.795C190.806 169.576 191.273 169.467 191.811 169.467C193.433 169.467 194.258 170.326 194.285 172.044V177H193.021V172.119C193.021 171.59 192.9 171.196 192.658 170.937C192.417 170.672 192.011 170.54 191.441 170.54C190.972 170.54 190.582 170.681 190.272 170.964C189.963 171.242 189.783 171.618 189.732 172.092V177H188.461V172.153C188.461 171.078 187.935 170.54 186.882 170.54C186.052 170.54 185.485 170.893 185.18 171.6V177H183.915V169.604H185.111ZM199.269 177.137C198.266 177.137 197.45 176.809 196.821 176.152C196.192 175.492 195.878 174.61 195.878 173.507V173.274C195.878 172.541 196.017 171.887 196.295 171.312C196.577 170.734 196.969 170.283 197.471 169.959C197.977 169.631 198.523 169.467 199.111 169.467C200.073 169.467 200.82 169.784 201.354 170.417C201.887 171.05 202.153 171.957 202.153 173.138V173.664H197.143C197.161 174.393 197.373 174.983 197.778 175.435C198.188 175.881 198.708 176.104 199.337 176.104C199.784 176.104 200.162 176.013 200.472 175.831C200.782 175.649 201.053 175.407 201.285 175.106L202.058 175.708C201.438 176.66 200.508 177.137 199.269 177.137ZM199.111 170.506C198.601 170.506 198.173 170.693 197.826 171.066C197.48 171.436 197.266 171.955 197.184 172.625H200.889V172.529C200.852 171.887 200.679 171.39 200.369 171.039C200.059 170.684 199.64 170.506 199.111 170.506Z" fill="#929ECC"/>
<path d="M269.651 174.402H265.481L264.545 177H263.191L266.992 167.047H268.141L271.948 177H270.602L269.651 174.402ZM265.878 173.322H269.262L267.566 168.667L265.878 173.322ZM279.352 173.384C279.352 174.514 279.092 175.423 278.572 176.111C278.053 176.795 277.355 177.137 276.48 177.137C275.546 177.137 274.824 176.806 274.313 176.146L274.252 177H273.09V166.5H274.354V170.417C274.865 169.784 275.569 169.467 276.467 169.467C277.365 169.467 278.069 169.806 278.579 170.485C279.094 171.164 279.352 172.094 279.352 173.274V173.384ZM278.087 173.24C278.087 172.379 277.921 171.714 277.588 171.244C277.255 170.775 276.777 170.54 276.152 170.54C275.318 170.54 274.719 170.927 274.354 171.702V174.901C274.742 175.676 275.346 176.063 276.166 176.063C276.772 176.063 277.244 175.829 277.581 175.359C277.918 174.89 278.087 174.184 278.087 173.24ZM280.616 173.233C280.616 172.509 280.757 171.857 281.04 171.278C281.327 170.7 281.724 170.253 282.229 169.938C282.74 169.624 283.321 169.467 283.973 169.467C284.98 169.467 285.793 169.815 286.413 170.513C287.037 171.21 287.35 172.137 287.35 173.295V173.384C287.35 174.104 287.211 174.751 286.933 175.325C286.659 175.895 286.265 176.339 285.75 176.658C285.24 176.977 284.652 177.137 283.986 177.137C282.984 177.137 282.17 176.788 281.546 176.091C280.926 175.394 280.616 174.471 280.616 173.322V173.233ZM281.888 173.384C281.888 174.204 282.077 174.863 282.455 175.359C282.838 175.856 283.348 176.104 283.986 176.104C284.629 176.104 285.139 175.854 285.518 175.353C285.896 174.847 286.085 174.14 286.085 173.233C286.085 172.422 285.891 171.766 285.504 171.265C285.121 170.759 284.611 170.506 283.973 170.506C283.348 170.506 282.845 170.754 282.462 171.251C282.079 171.748 281.888 172.459 281.888 173.384ZM293.502 176.269C293.01 176.847 292.287 177.137 291.335 177.137C290.547 177.137 289.945 176.909 289.53 176.453C289.12 175.993 288.913 175.314 288.908 174.416V169.604H290.173V174.382C290.173 175.503 290.629 176.063 291.54 176.063C292.506 176.063 293.149 175.703 293.468 174.983V169.604H294.732V177H293.529L293.502 176.269ZM298.376 167.812V169.604H299.757V170.581H298.376V175.168C298.376 175.464 298.438 175.688 298.561 175.838C298.684 175.984 298.893 176.057 299.189 176.057C299.335 176.057 299.536 176.029 299.791 175.975V177C299.458 177.091 299.135 177.137 298.82 177.137C298.255 177.137 297.829 176.966 297.542 176.624C297.255 176.282 297.111 175.797 297.111 175.168V170.581H295.765V169.604H297.111V167.812H298.376Z" fill="#929ECC"/>
<path d="M369.477 173.842C369.354 174.895 368.964 175.708 368.308 176.282C367.656 176.852 366.788 177.137 365.703 177.137C364.527 177.137 363.584 176.715 362.873 175.872C362.167 175.029 361.813 173.901 361.813 172.488V171.531C361.813 170.606 361.978 169.793 362.306 169.091C362.638 168.389 363.108 167.851 363.714 167.478C364.32 167.099 365.022 166.91 365.819 166.91C366.877 166.91 367.724 167.206 368.362 167.799C369 168.387 369.372 169.202 369.477 170.246H368.157C368.043 169.453 367.795 168.879 367.412 168.523C367.034 168.168 366.503 167.99 365.819 167.99C364.981 167.99 364.322 168.3 363.844 168.92C363.37 169.54 363.133 170.422 363.133 171.565V172.529C363.133 173.609 363.358 174.468 363.81 175.106C364.261 175.744 364.892 176.063 365.703 176.063C366.432 176.063 366.991 175.899 367.378 175.571C367.77 175.239 368.03 174.662 368.157 173.842H369.477ZM370.741 173.233C370.741 172.509 370.882 171.857 371.165 171.278C371.452 170.7 371.849 170.253 372.354 169.938C372.865 169.624 373.446 169.467 374.098 169.467C375.105 169.467 375.918 169.815 376.538 170.513C377.162 171.21 377.475 172.137 377.475 173.295V173.384C377.475 174.104 377.336 174.751 377.058 175.325C376.784 175.895 376.39 176.339 375.875 176.658C375.365 176.977 374.777 177.137 374.111 177.137C373.109 177.137 372.295 176.788 371.671 176.091C371.051 175.394 370.741 174.471 370.741 173.322V173.233ZM372.013 173.384C372.013 174.204 372.202 174.863 372.58 175.359C372.963 175.856 373.473 176.104 374.111 176.104C374.754 176.104 375.264 175.854 375.643 175.353C376.021 174.847 376.21 174.14 376.21 173.233C376.21 172.422 376.016 171.766 375.629 171.265C375.246 170.759 374.736 170.506 374.098 170.506C373.473 170.506 372.97 170.754 372.587 171.251C372.204 171.748 372.013 172.459 372.013 173.384ZM380.257 169.604L380.298 170.533C380.863 169.822 381.601 169.467 382.513 169.467C384.076 169.467 384.864 170.349 384.878 172.112V177H383.613V172.105C383.609 171.572 383.486 171.178 383.244 170.923C383.007 170.668 382.636 170.54 382.13 170.54C381.72 170.54 381.36 170.649 381.05 170.868C380.74 171.087 380.498 171.374 380.325 171.729V177H379.061V169.604H380.257ZM388.501 167.812V169.604H389.882V170.581H388.501V175.168C388.501 175.464 388.562 175.688 388.686 175.838C388.809 175.984 389.018 176.057 389.314 176.057C389.46 176.057 389.661 176.029 389.916 175.975V177C389.583 177.091 389.26 177.137 388.945 177.137C388.38 177.137 387.954 176.966 387.667 176.624C387.38 176.282 387.236 175.797 387.236 175.168V170.581H385.89V169.604H387.236V167.812H388.501ZM395.932 177C395.859 176.854 395.799 176.594 395.754 176.221C395.166 176.831 394.464 177.137 393.648 177.137C392.919 177.137 392.32 176.932 391.851 176.521C391.386 176.107 391.153 175.583 391.153 174.949C391.153 174.179 391.445 173.582 392.028 173.158C392.616 172.73 393.441 172.516 394.503 172.516H395.733V171.935C395.733 171.493 395.601 171.142 395.337 170.882C395.073 170.618 394.683 170.485 394.168 170.485C393.717 170.485 393.339 170.599 393.033 170.827C392.728 171.055 392.575 171.331 392.575 171.654H391.304C391.304 171.285 391.434 170.93 391.693 170.588C391.958 170.242 392.313 169.968 392.76 169.768C393.211 169.567 393.705 169.467 394.243 169.467C395.095 169.467 395.763 169.681 396.246 170.109C396.729 170.533 396.98 171.119 396.998 171.866V175.271C396.998 175.95 397.085 176.49 397.258 176.891V177H395.932ZM393.833 176.036C394.229 176.036 394.605 175.934 394.961 175.729C395.316 175.523 395.574 175.257 395.733 174.929V173.411H394.742C393.193 173.411 392.418 173.865 392.418 174.771C392.418 175.168 392.55 175.478 392.814 175.701C393.079 175.924 393.418 176.036 393.833 176.036ZM401.947 176.104C402.398 176.104 402.793 175.968 403.13 175.694C403.467 175.421 403.654 175.079 403.69 174.669H404.887C404.864 175.093 404.718 175.496 404.449 175.879C404.18 176.262 403.82 176.567 403.369 176.795C402.923 177.023 402.449 177.137 401.947 177.137C400.94 177.137 400.138 176.802 399.541 176.132C398.949 175.457 398.652 174.537 398.652 173.37V173.158C398.652 172.438 398.785 171.798 399.049 171.237C399.313 170.677 399.691 170.242 400.184 169.932C400.68 169.622 401.266 169.467 401.94 169.467C402.77 169.467 403.458 169.715 404.005 170.212C404.556 170.709 404.85 171.354 404.887 172.146H403.69C403.654 171.668 403.472 171.276 403.144 170.971C402.82 170.661 402.419 170.506 401.94 170.506C401.298 170.506 400.799 170.738 400.443 171.203C400.092 171.663 399.917 172.331 399.917 173.206V173.445C399.917 174.298 400.092 174.954 400.443 175.414C400.794 175.874 401.296 176.104 401.947 176.104ZM408.024 167.812V169.604H409.405V170.581H408.024V175.168C408.024 175.464 408.086 175.688 408.209 175.838C408.332 175.984 408.542 176.057 408.838 176.057C408.984 176.057 409.184 176.029 409.439 175.975V177C409.107 177.091 408.783 177.137 408.469 177.137C407.904 177.137 407.478 176.966 407.19 176.624C406.903 176.282 406.76 175.797 406.76 175.168V170.581H405.413V169.604H406.76V167.812H408.024Z" fill="#929ECC"/>
<path fill-rule="evenodd" clip-rule="evenodd" d="M1264 164H1270C1272.76 164 1275 166.239 1275 169V175C1275 177.761 1272.76 180 1270 180H1264C1261.24 180 1259 177.761 1259 175V169C1259 166.239 1261.24 164 1264 164ZM1270 178.5C1271.93 178.5 1273.5 176.93 1273.5 175V169C1273.5 167.07 1271.93 165.5 1270 165.5H1264C1262.07 165.5 1260.5 167.07 1260.5 169V175C1260.5 176.93 1262.07 178.5 1264 178.5H1270ZM1263 172C1263 169.791 1264.79 168 1267 168C1269.21 168 1271 169.791 1271 172C1271 174.209 1269.21 176 1267 176C1264.79 176 1263 174.209 1263 172ZM1264.5 172C1264.5 173.378 1265.62 174.5 1267 174.5C1268.38 174.5 1269.5 173.378 1269.5 172C1269.5 170.621 1268.38 169.5 1267 169.5C1265.62 169.5 1264.5 170.621 1264.5 172ZM1271.83 167.7C1271.83 167.994 1271.59 168.233 1271.3 168.233C1271.01 168.233 1270.77 167.994 1270.77 167.7C1270.77 167.406 1271.01 167.167 1271.3 167.167C1271.59 167.167 1271.83 167.406 1271.83 167.7Z" fill="#B0B8BC"/>
<path fill-rule="evenodd" clip-rule="evenodd" d="M1226.46 166.759C1227.42 166.813 1227.89 166.955 1228.32 167.727C1228.77 168.498 1229 169.826 1229 172.165V172.168V172.173C1229 174.501 1228.77 175.839 1228.32 176.602C1227.89 177.374 1227.42 177.514 1226.46 177.579C1225.5 177.634 1223.09 177.667 1221 177.667C1218.91 177.667 1216.5 177.634 1215.54 177.578C1214.59 177.513 1214.12 177.373 1213.68 176.601C1213.23 175.838 1213 174.5 1213 172.172V172.17V172.167V172.164C1213 169.826 1213.23 168.498 1213.68 167.727C1214.12 166.954 1214.59 166.813 1215.54 166.758C1216.5 166.694 1218.91 166.667 1221 166.667C1223.09 166.667 1225.5 166.694 1226.46 166.759ZM1224 172.167L1219 169.167V175.167L1224 172.167Z" fill="#B0B8BC"/>
<path d="M1183 166.872C1182.41 167.133 1181.77 167.306 1181.11 167.39C1181.79 166.984 1182.31 166.346 1182.55 165.577C1181.92 165.955 1181.22 166.222 1180.47 166.371C1179.87 165.73 1179.01 165.333 1178.08 165.333C1176.26 165.333 1174.8 166.807 1174.8 168.614C1174.8 168.874 1174.82 169.124 1174.88 169.362C1172.15 169.229 1169.74 167.922 1168.11 165.931C1167.83 166.422 1167.67 166.984 1167.67 167.589C1167.67 168.725 1168.25 169.732 1169.12 170.315C1168.6 170.305 1168.08 170.152 1167.64 169.911C1167.64 169.921 1167.64 169.934 1167.64 169.947C1167.64 171.541 1168.78 172.865 1170.27 173.17C1170 173.243 1169.71 173.278 1169.41 173.278C1169.2 173.278 1168.99 173.266 1168.79 173.222C1169.21 174.521 1170.42 175.476 1171.85 175.507C1170.74 176.38 1169.32 176.906 1167.79 176.906C1167.52 176.906 1167.26 176.894 1167 176.861C1168.45 177.798 1170.17 178.333 1172.03 178.333C1178.07 178.333 1181.37 173.333 1181.37 168.999C1181.37 168.854 1181.36 168.714 1181.36 168.575C1182.01 168.113 1182.55 167.536 1183 166.872Z" fill="#B0B8BC"/>
<path fill-rule="evenodd" clip-rule="evenodd" d="M1124.5 165.75C1124.5 166.716 1123.72 167.5 1122.75 167.5C1121.78 167.5 1121 166.716 1121 165.75C1121 164.784 1121.78 164 1122.75 164C1123.72 164 1124.5 164.784 1124.5 165.75ZM1121 169H1124.58V180H1121V169ZM1134.3 169.121C1134.3 169.12 1134.29 169.118 1134.29 169.117C1134.26 169.109 1134.24 169.1 1134.21 169.093C1134.16 169.082 1134.11 169.073 1134.07 169.065C1133.88 169.027 1133.67 169 1133.42 169C1131.34 169 1130.01 170.517 1129.58 171.103V169H1126V180H1129.58V174C1129.58 174 1132.28 170.234 1133.42 173V180H1137V172.577C1137 170.915 1135.86 169.53 1134.32 169.129C1134.32 169.126 1134.31 169.124 1134.3 169.121Z" fill="#B0B8BC"/>
<path d="M1084 169.5V167.5C1084 166.948 1084.45 166.5 1085 166.5H1086V164H1084C1082.34 164 1081 165.343 1081 167V169.5H1079V172H1081V180H1084V172H1086L1087 169.5H1084Z" fill="#B0B8BC"/>
<rect x="165" y="139" width="1110" height="1" fill="#CDD1D4"/>
</svg>
